<svg xmlns="http://www.w3.org/2000/svg" xmlns:xlink="http://www.w3.org/1999/xlink" width="500" zoomAndPan="magnify" viewBox="0 0 375 374.999991" height="500" preserveAspectRatio="xMidYMid meet" version="1.0"><defs><g/><clipPath id="5356418802"><path d="M 121.648438 94.042969 L 253.351562 94.042969 L 253.351562 225.746094 L 121.648438 225.746094 Z M 121.648438 94.042969 " clip-rule="nonzero"/></clipPath><clipPath id="3543317f18"><path d="M 187.5 94.042969 C 151.132812 94.042969 121.648438 123.527344 121.648438 159.894531 C 121.648438 196.261719 151.132812 225.746094 187.5 225.746094 C 223.867188 225.746094 253.351562 196.261719 253.351562 159.894531 C 253.351562 123.527344 223.867188 94.042969 187.5 94.042969 Z M 187.5 94.042969 " clip-rule="nonzero"/></clipPath><clipPath id="4de6c3714b"><path d="M 112.742188 122.957031 L 262.273438 122.957031 L 262.273438 197.207031 L 112.742188 197.207031 Z M 112.742188 122.957031 " clip-rule="nonzero"/></clipPath></defs><g clip-path="url(#5356418802)"><g clip-path="url(#3543317f18)"><path fill="#38b6ff" d="M 121.648438 94.042969 L 253.351562 94.042969 L 253.351562 225.746094 L 121.648438 225.746094 Z M 121.648438 94.042969 " fill-opacity="1" fill-rule="nonzero"/></g></g><g clip-path="url(#4de6c3714b)"><path fill="#141515" d="M 152.292969 143.511719 L 152.152344 163.261719 C 146.246094 164.226562 140.542969 165.167969 135.550781 166.007812 L 133.925781 150.160156 C 138.914062 148.320312 145.371094 145.988281 152.292969 143.511719 Z M 171.886719 136.507812 L 171.722656 160.171875 C 166.023438 161.054688 159.972656 162.015625 154.046875 162.957031 L 152.355469 143.488281 C 158.773438 141.199219 165.554688 138.78125 171.886719 136.507812 Z M 138.464844 174.132812 L 176.46875 170.121094 C 176.46875 170.121094 176.347656 172.679688 173.007812 173.5 C 169.648438 174.316406 138.324219 174.910156 138.324219 174.910156 Z M 141.253906 179.210938 L 173.984375 176.40625 C 173.984375 176.40625 173.3125 178.839844 170.441406 179.558594 C 167.550781 180.273438 141.132812 179.988281 141.132812 179.988281 Z M 122.558594 171.820312 C 122.558594 171.820312 189.726562 161.730469 191.847656 162.179688 C 193.945312 162.667969 194.148438 165.332031 194.148438 165.332031 L 122.703125 172.371094 Z M 218.996094 175.320312 C 218.996094 175.320312 224.984375 176.015625 227.628906 177.039062 C 228.871094 177.511719 229.585938 178.453125 230.011719 179.3125 C 228.28125 178.964844 222.621094 177.796875 222.785156 178.246094 C 222.945312 178.738281 227.203125 180.726562 229.21875 181.234375 C 226.511719 181.296875 220.605469 181.398438 219.832031 180.949219 C 218.8125 180.355469 218.996094 175.320312 218.996094 175.320312 Z M 217.019531 194.214844 C 216.125 193.414062 215.371094 192.332031 214.757812 191 C 207.914062 190.917969 201.765625 190.753906 197.875 190.652344 C 197.242188 192.042969 196.46875 193.210938 195.574219 194.089844 C 203.109375 194.113281 210.320312 194.152344 217.019531 194.214844 Z M 162.679688 194.171875 C 168.363281 194.132812 174.371094 194.089844 180.585938 194.089844 C 179.832031 193.394531 179.117188 192.515625 178.527344 191.472656 L 178.507812 191.429688 L 164.492188 191.53125 C 164.003906 192.636719 163.394531 193.558594 162.679688 194.171875 Z M 138.628906 194.460938 C 143.167969 194.378906 148.203125 194.316406 153.617188 194.253906 C 152.886719 193.640625 152.234375 192.738281 151.746094 191.636719 L 140.890625 191.714844 C 140.277344 192.925781 139.503906 193.886719 138.628906 194.460938 Z M 193.984375 186.96875 C 194.738281 186.96875 195.816406 186.988281 197.121094 187.007812 L 198.996094 187.007812 L 198.996094 187.050781 C 211.316406 187.378906 238.28125 188.257812 248.546875 186.433594 C 250.195312 186.148438 251.460938 185.535156 252.089844 184.796875 C 252.417969 184.367188 252.4375 182.628906 252.273438 180.417969 C 250.238281 180.664062 248.363281 180.828125 248.363281 180.828125 C 250.035156 180.113281 251.601562 179.292969 251.703125 179.003906 C 251.785156 178.757812 250.238281 178.964844 248.507812 179.269531 C 249.078125 176.835938 251.296875 176.015625 253.457031 175.28125 C 254.25 180.113281 255.105469 186.457031 254.25 187.519531 C 253.699219 188.214844 251.949219 189.34375 249.339844 189.773438 C 245.511719 190.40625 239.851562 190.753906 233.597656 190.917969 C 232.945312 192.351562 232.089844 193.539062 231.113281 194.378906 C 249.953125 194.664062 262.273438 195.136719 262.273438 195.648438 C 262.273438 196.507812 228.667969 197.222656 187.507812 197.222656 C 146.328125 197.222656 112.742188 196.507812 112.742188 195.648438 C 112.742188 195.277344 119.21875 194.929688 129.972656 194.644531 C 128.933594 194.089844 128.019531 193.027344 127.347656 191.636719 L 125.492188 191.554688 L 119.382812 189.875 L 119.179688 188.851562 L 124.960938 188.769531 L 124.960938 184.574219 C 124.960938 184.449219 124.960938 184.367188 124.960938 184.265625 C 124.960938 179.269531 127.121094 175.199219 131.480469 175.21875 C 135.859375 175.21875 137.996094 179.269531 137.996094 184.265625 C 137.996094 184.367188 137.996094 184.492188 137.996094 184.59375 L 137.996094 188.605469 L 163.742188 188.277344 L 175.878906 188.132812 L 175.878906 185.515625 L 139.730469 185.492188 L 139.730469 184.164062 C 150.378906 183.691406 164.210938 183.097656 175.878906 182.667969 L 175.878906 182.28125 C 175.878906 165.433594 192.152344 165.660156 192.152344 182.628906 C 192.152344 184.164062 191.988281 185.636719 191.683594 187.007812 L 193.984375 187.007812 Z M 190.117188 186.679688 C 189.097656 189.730469 187.324219 191.738281 185.308594 191.738281 C 183.171875 191.738281 181.296875 189.425781 180.339844 186.003906 C 181.601562 188.214844 183.414062 189.609375 185.429688 189.609375 C 187.242188 189.609375 188.871094 188.503906 190.117188 186.679688 Z M 185.351562 175.605469 C 187.203125 175.605469 188.691406 177.820312 188.75 180.558594 C 188.097656 179.085938 186.816406 178.082031 185.351562 178.082031 C 183.882812 178.082031 182.601562 179.085938 181.949219 180.558594 C 182.011719 177.820312 183.496094 175.605469 185.351562 175.605469 Z M 185.144531 185.066406 C 185.878906 185.066406 186.449219 183.960938 186.449219 182.609375 C 186.449219 181.257812 185.878906 180.152344 185.144531 180.152344 C 184.433594 180.152344 183.84375 181.257812 183.84375 182.609375 C 183.84375 183.960938 184.433594 185.066406 185.144531 185.066406 Z M 131.601562 180.480469 C 132.863281 180.480469 133.902344 182.054688 133.945312 184.0625 C 133.496094 182.976562 132.601562 182.238281 131.601562 182.238281 C 130.582031 182.238281 129.707031 182.976562 129.261719 184.0625 C 129.300781 182.054688 130.320312 180.480469 131.601562 180.480469 Z M 131.238281 176.40625 C 133.722656 176.40625 135.777344 179.578125 136.144531 183.734375 C 135.289062 180.746094 133.414062 178.699219 131.238281 178.699219 C 129.035156 178.699219 127.121094 180.828125 126.285156 183.855469 C 126.613281 179.660156 128.6875 176.40625 131.238281 176.40625 Z M 131.460938 187.316406 C 131.96875 187.316406 132.355469 186.515625 132.355469 185.535156 C 132.355469 184.550781 131.96875 183.753906 131.460938 183.753906 C 130.96875 183.753906 130.5625 184.550781 130.5625 185.535156 C 130.5625 186.515625 130.96875 187.316406 131.460938 187.316406 Z M 134.859375 188.503906 C 134.167969 190.714844 132.96875 192.167969 131.582031 192.167969 C 130.09375 192.167969 128.8125 190.488281 128.140625 188.011719 C 129.015625 189.609375 130.257812 190.613281 131.664062 190.613281 C 132.886719 190.613281 134.027344 189.8125 134.859375 188.503906 Z M 184.800781 171.0625 C 187.710938 171.0625 190.117188 174.5625 190.523438 179.128906 C 189.523438 175.851562 187.347656 173.582031 184.820312 173.582031 C 182.234375 173.582031 180.035156 175.933594 179.078125 179.269531 C 179.441406 174.644531 181.867188 171.0625 184.800781 171.0625 Z M 117.996094 166.128906 L 117.816406 155.445312 C 117.835938 152.558594 119.851562 150.328125 122.90625 149.117188 C 136.734375 143.613281 188.484375 125.085938 203.070312 122.957031 C 207.8125 133.070312 212.355469 147.910156 216.632812 167.867188 C 215.71875 154.667969 213.292969 142.078125 209.769531 129.980469 C 211.5 130.164062 213.660156 130.449219 215.410156 130.757812 C 217.285156 133.746094 220.035156 142.835938 220.503906 145.207031 C 220.605469 145.78125 225.675781 146.234375 225.289062 144.042969 C 225.246094 143.714844 225.125 143.183594 224.960938 142.488281 L 224.984375 142.488281 C 224.984375 142.488281 224.921875 142.21875 224.800781 141.75 C 224.414062 140.195312 223.84375 138.148438 223.148438 136.246094 C 222.988281 135.855469 222.84375 135.464844 222.679688 135.097656 C 222.113281 133.582031 221.457031 132.109375 220.765625 131.023438 C 220.605469 130.738281 220.503906 130.574219 220.503906 130.574219 L 220.441406 130.550781 C 219.992188 129.957031 219.546875 129.527344 219.097656 129.324219 C 217.242188 128.503906 212.011719 127.828125 209.035156 127.523438 C 208.609375 126.070312 208.160156 124.636719 207.691406 123.203125 C 216.9375 123.878906 225.085938 125.433594 234.71875 127.707031 C 236.183594 128.648438 237.589844 129.957031 238.914062 131.535156 C 241.15625 131.882812 248.058594 133.03125 249.6875 134.132812 C 249.953125 134.320312 250.238281 134.625 250.523438 135.015625 L 250.582031 135.035156 C 250.582031 135.035156 252.191406 137.246094 253.433594 139.722656 C 254.71875 142.34375 255.636719 145.25 255.878906 146.171875 C 256.347656 147.972656 251.253906 147.605469 251.132812 147.132812 C 250.5625 145.148438 247.445312 137.554688 245.453125 135.136719 C 244.023438 134.8125 242.355469 134.503906 240.929688 134.257812 C 244.148438 139.066406 246.878906 145.617188 248.996094 152.96875 C 244.472656 153.847656 239.789062 154.585938 234.859375 155.585938 C 238.363281 155.464844 243.800781 155.117188 249.402344 154.480469 C 249.6875 155.527344 249.972656 156.570312 250.21875 157.632812 C 244.433594 159.148438 238.363281 160.253906 231.929688 161.378906 C 236.328125 161.339844 243.761719 161.054688 250.828125 160.234375 C 250.972656 160.890625 251.09375 161.542969 251.234375 162.179688 C 243.984375 164.246094 236.429688 165.433594 228.199219 166.621094 C 233.597656 166.742188 243.597656 166.558594 251.867188 165.472656 C 251.949219 166.007812 252.03125 166.519531 252.109375 167.050781 C 243.679688 169.589844 234.921875 170.507812 225.226562 171.738281 C 231.460938 172.003906 243.902344 172.105469 252.679688 170.714844 C 252.761719 171.410156 252.863281 172.125 252.945312 172.84375 C 244.25 174.664062 231.804688 175.238281 218.609375 173.152344 C 217.957031 173.046875 217.347656 172.882812 216.777344 172.679688 L 217.121094 184.246094 L 214.332031 171.347656 C 208.546875 167.03125 207.058594 156.855469 200.277344 156.855469 L 201.378906 182.832031 L 212.90625 185.066406 L 199.035156 184.859375 L 198.058594 154.113281 L 198.078125 154.113281 L 196.246094 129.753906 L 196.0625 156.917969 C 191.417969 157.308594 183.128906 158.453125 173.640625 159.886719 L 171.886719 136.507812 C 186.386719 131.351562 198.546875 127.074219 198.546875 127.074219 L 126.082031 150.386719 C 120.664062 151.472656 120.664062 156.121094 120.402344 160.542969 C 120.402344 160.542969 121.5 155.585938 124.167969 153.910156 C 124.472656 153.683594 128.179688 152.269531 133.78125 150.203125 L 133.660156 166.3125 C 127.46875 167.359375 122.558594 168.195312 119.992188 168.628906 L 118.117188 184.390625 L 117.996094 166.128906 " fill-opacity="1" fill-rule="evenodd"/></g><g fill="#38b6ff" fill-opacity="1"><g transform="translate(87.252613, 256.86187)"><g><path d="M 24.589844 -20.445312 L 11.652344 0 L 7.007812 0 L 2.25 -20.445312 L 7.125 -20.445312 L 10.425781 -5.871094 L 19.683594 -20.445312 Z M 24.589844 -20.445312 "/></g></g></g><g fill="#38b6ff" fill-opacity="1"><g transform="translate(108.363892, 256.86187)"><g><path d="M 8.878906 -16.648438 L 8.003906 -12.207031 L 17.492188 -12.207031 L 16.761719 -8.527344 L 7.242188 -8.527344 L 6.308594 -3.796875 L 17.464844 -3.796875 L 16.675781 0 L 0.847656 0 L 4.9375 -20.445312 L 20.386719 -20.445312 L 19.597656 -16.648438 Z M 8.878906 -16.648438 "/></g></g></g><g fill="#38b6ff" fill-opacity="1"><g transform="translate(127.285184, 256.86187)"><g><path d="M 13.523438 -10.308594 L 19.128906 0 L 14.019531 0 L 10.398438 -6.949219 L 4.207031 0 L -1.460938 0 L 8.324219 -10.601562 L 3.039062 -20.445312 L 8.089844 -20.445312 L 11.507812 -13.871094 L 17.464844 -20.445312 L 22.839844 -20.445312 Z M 13.523438 -10.308594 "/></g></g></g><g fill="#38b6ff" fill-opacity="1"><g transform="translate(147.462071, 256.86187)"><g><path d="M 8.878906 -16.648438 L 8.003906 -12.207031 L 17.492188 -12.207031 L 16.761719 -8.527344 L 7.242188 -8.527344 L 6.308594 -3.796875 L 17.464844 -3.796875 L 16.675781 0 L 0.847656 0 L 4.9375 -20.445312 L 20.386719 -20.445312 L 19.597656 -16.648438 Z M 8.878906 -16.648438 "/></g></g></g><g fill="#38b6ff" fill-opacity="1"><g transform="translate(166.383363, 256.86187)"><g><path d="M 8.382812 -16.589844 L 1.839844 -16.589844 L 2.628906 -20.445312 L 20.445312 -20.445312 L 19.65625 -16.589844 L 13.140625 -16.589844 L 9.8125 0 L 5.082031 0 Z M 8.382812 -16.589844 "/></g></g></g><g fill="#38b6ff" fill-opacity="1"><g transform="translate(183.757069, 256.86187)"><g><path d="M 4.9375 -20.445312 L 9.695312 -20.445312 L 5.605469 0 L 0.847656 0 Z M 4.9375 -20.445312 "/></g></g></g><g fill="#38b6ff" fill-opacity="1"><g transform="translate(192.662831, 256.86187)"><g><path d="M 8.878906 -16.648438 L 8.003906 -12.207031 L 17.492188 -12.207031 L 16.761719 -8.527344 L 7.242188 -8.527344 L 6.308594 -3.796875 L 17.464844 -3.796875 L 16.675781 0 L 0.847656 0 L 4.9375 -20.445312 L 20.386719 -20.445312 L 19.597656 -16.648438 Z M 8.878906 -16.648438 "/></g></g></g><g fill="#38b6ff" fill-opacity="1"><g transform="translate(211.584123, 256.86187)"><g><path d="M 23.683594 -20.445312 L 19.597656 0 L 15.710938 0 L 8.089844 -12.792969 L 5.519531 0 L 0.847656 0 L 4.9375 -20.445312 L 8.847656 -20.445312 L 16.472656 -7.621094 L 19.011719 -20.445312 Z M 23.683594 -20.445312 "/></g></g></g><g fill="#38b6ff" fill-opacity="1"><g transform="translate(234.505779, 256.86187)"><g><path d="M 4.9375 -20.445312 L 9.695312 -20.445312 L 5.605469 0 L 0.847656 0 Z M 4.9375 -20.445312 "/></g></g></g><g fill="#38b6ff" fill-opacity="1"><g transform="translate(243.411557, 256.86187)"><g><path d="M 11.59375 0.351562 C 9.550781 0.351562 7.761719 -0.0195312 6.234375 -0.757812 C 4.707031 -1.5 3.535156 -2.539062 2.714844 -3.882812 C 1.898438 -5.226562 1.488281 -6.777344 1.488281 -8.527344 C 1.488281 -10.84375 2.019531 -12.933594 3.082031 -14.792969 C 4.140625 -16.652344 5.636719 -18.117188 7.5625 -19.1875 C 9.492188 -20.257812 11.703125 -20.792969 14.195312 -20.792969 C 16.023438 -20.792969 17.640625 -20.484375 19.042969 -19.859375 C 20.445312 -19.238281 21.503906 -18.339844 22.226562 -17.171875 L 18.808594 -14.367188 C 17.71875 -15.964844 16.074219 -16.761719 13.871094 -16.761719 C 12.375 -16.761719 11.050781 -16.414062 9.902344 -15.710938 C 8.75 -15.011719 7.859375 -14.058594 7.226562 -12.851562 C 6.59375 -11.644531 6.277344 -10.300781 6.277344 -8.820312 C 6.277344 -7.242188 6.78125 -5.992188 7.78125 -5.066406 C 8.785156 -4.140625 10.191406 -3.679688 12.003906 -3.679688 C 14.164062 -3.679688 15.976562 -4.46875 17.433594 -6.046875 L 20.238281 -3.183594 C 18.214844 -0.828125 15.332031 0.351562 11.59375 0.351562 Z M 11.59375 0.351562 "/></g></g></g><g fill="#38b6ff" fill-opacity="1"><g transform="translate(264.143233, 256.86187)"><g><path d="M 23.683594 -20.445312 L 19.597656 0 L 14.867188 0 L 16.53125 -8.324219 L 7.273438 -8.324219 L 5.605469 0 L 0.847656 0 L 4.9375 -20.445312 L 9.695312 -20.445312 L 8.089844 -12.414062 L 17.347656 -12.414062 L 18.953125 -20.445312 Z M 23.683594 -20.445312 "/></g></g></g><g fill="#000000" fill-opacity="1"><g transform="translate(93.83719, 274.93838)"><g><path d="M 1.976562 -8.179688 L 5.398438 -8.179688 C 6.234375 -8.179688 6.953125 -8.042969 7.554688 -7.765625 C 8.160156 -7.488281 8.621094 -7.09375 8.945312 -6.578125 C 9.269531 -6.066406 9.429688 -5.460938 9.429688 -4.769531 C 9.429688 -3.816406 9.21875 -2.980469 8.789062 -2.261719 C 8.359375 -1.539062 7.761719 -0.984375 6.996094 -0.589844 C 6.226562 -0.195312 5.339844 0 4.335938 0 L 0.339844 0 Z M 4.394531 -1.554688 C 5.03125 -1.554688 5.589844 -1.6875 6.058594 -1.957031 C 6.53125 -2.226562 6.890625 -2.597656 7.140625 -3.066406 C 7.390625 -3.539062 7.515625 -4.070312 7.515625 -4.664062 C 7.515625 -5.277344 7.316406 -5.757812 6.917969 -6.105469 C 6.519531 -6.453125 5.945312 -6.625 5.1875 -6.625 L 3.566406 -6.625 L 2.546875 -1.554688 Z M 4.394531 -1.554688 "/></g></g></g><g fill="#000000" fill-opacity="1"><g transform="translate(104.353356, 274.93838)"><g><path d="M 1.472656 -6.289062 L 3.285156 -6.289062 L 2.035156 0 L 0.222656 0 Z M 2.6875 -7.164062 C 2.375 -7.164062 2.121094 -7.253906 1.921875 -7.4375 C 1.722656 -7.621094 1.625 -7.847656 1.625 -8.109375 C 1.625 -8.421875 1.734375 -8.679688 1.957031 -8.886719 C 2.179688 -9.09375 2.46875 -9.199219 2.828125 -9.199219 C 3.148438 -9.199219 3.40625 -9.109375 3.605469 -8.933594 C 3.804688 -8.757812 3.902344 -8.542969 3.902344 -8.285156 C 3.902344 -7.949219 3.789062 -7.679688 3.566406 -7.472656 C 3.339844 -7.265625 3.046875 -7.164062 2.6875 -7.164062 Z M 0.714844 2.453125 C 0.488281 2.453125 0.304688 2.386719 0.167969 2.253906 C 0.03125 2.125 -0.0351562 1.949219 -0.0351562 1.730469 C -0.0351562 1.488281 0.0546875 1.28125 0.234375 1.109375 C 0.414062 0.9375 0.621094 0.851562 0.851562 0.851562 C 1.0625 0.851562 1.242188 0.917969 1.386719 1.050781 C 1.527344 1.183594 1.601562 1.351562 1.601562 1.554688 C 1.601562 1.828125 1.515625 2.046875 1.351562 2.207031 C 1.183594 2.371094 0.96875 2.453125 0.714844 2.453125 Z M 0.714844 2.453125 "/></g></g></g><g fill="#000000" fill-opacity="1"><g transform="translate(108.723652, 274.93838)"><g><path d="M 3.542969 0.09375 C 2.894531 0.09375 2.328125 -0.0234375 1.847656 -0.257812 C 1.363281 -0.492188 0.992188 -0.820312 0.730469 -1.246094 C 0.46875 -1.667969 0.339844 -2.160156 0.339844 -2.722656 C 0.339844 -3.417969 0.503906 -4.039062 0.828125 -4.59375 C 1.15625 -5.144531 1.613281 -5.582031 2.195312 -5.902344 C 2.78125 -6.222656 3.441406 -6.382812 4.171875 -6.382812 C 4.84375 -6.382812 5.421875 -6.242188 5.90625 -5.964844 C 6.394531 -5.691406 6.757812 -5.296875 7 -4.792969 L 5.457031 -4.019531 C 5.183594 -4.589844 4.71875 -4.875 4.054688 -4.875 C 3.695312 -4.875 3.375 -4.785156 3.089844 -4.609375 C 2.808594 -4.433594 2.585938 -4.191406 2.425781 -3.878906 C 2.265625 -3.570312 2.183594 -3.214844 2.183594 -2.816406 C 2.183594 -2.386719 2.3125 -2.046875 2.570312 -1.792969 C 2.828125 -1.539062 3.1875 -1.414062 3.644531 -1.414062 C 4.316406 -1.414062 4.832031 -1.695312 5.1875 -2.253906 L 6.53125 -1.414062 C 6.230469 -0.9375 5.8125 -0.570312 5.289062 -0.304688 C 4.761719 -0.0390625 4.179688 0.09375 3.542969 0.09375 Z M 3.542969 0.09375 "/></g></g></g><g fill="#000000" fill-opacity="1"><g transform="translate(116.494037, 274.93838)"><g><path d="M 5.128906 -6.382812 C 5.832031 -6.382812 6.390625 -6.195312 6.800781 -5.820312 C 7.214844 -5.445312 7.421875 -4.917969 7.421875 -4.230469 C 7.421875 -3.980469 7.394531 -3.730469 7.339844 -3.484375 L 6.636719 0 L 4.816406 0 L 5.492188 -3.367188 C 5.523438 -3.5 5.539062 -3.640625 5.539062 -3.796875 C 5.539062 -4.125 5.449219 -4.375 5.269531 -4.546875 C 5.089844 -4.71875 4.824219 -4.804688 4.464844 -4.804688 C 3.996094 -4.804688 3.609375 -4.667969 3.300781 -4.398438 C 2.992188 -4.132812 2.785156 -3.726562 2.675781 -3.191406 L 2.046875 0 L 0.222656 0 L 1.953125 -8.671875 L 3.773438 -8.671875 L 3.191406 -5.714844 C 3.726562 -6.160156 4.375 -6.382812 5.128906 -6.382812 Z M 5.128906 -6.382812 "/></g></g></g><g fill="#000000" fill-opacity="1"><g transform="translate(125.43284, 274.93838)"><g/></g></g><g fill="#000000" fill-opacity="1"><g transform="translate(129.604506, 274.93838)"><g><path d="M 7.714844 -6.289062 L 3.808594 0 L 1.929688 0 L 0.539062 -6.289062 L 2.335938 -6.289062 L 3.25 -2 L 5.890625 -6.289062 Z M 7.714844 -6.289062 "/></g></g></g><g fill="#000000" fill-opacity="1"><g transform="translate(137.456682, 274.93838)"><g><path d="M 7.808594 -6.289062 L 6.554688 0 L 4.828125 0 L 4.957031 -0.679688 C 4.683594 -0.421875 4.371094 -0.226562 4.019531 -0.0976562 C 3.667969 0.0273438 3.300781 0.09375 2.910156 0.09375 C 2.222656 0.09375 1.675781 -0.09375 1.269531 -0.46875 C 0.859375 -0.839844 0.65625 -1.367188 0.65625 -2.046875 C 0.65625 -2.300781 0.683594 -2.554688 0.734375 -2.804688 L 1.425781 -6.289062 L 3.25 -6.289062 L 2.582031 -2.921875 C 2.550781 -2.773438 2.535156 -2.621094 2.535156 -2.464844 C 2.535156 -1.8125 2.886719 -1.484375 3.585938 -1.484375 C 4.046875 -1.484375 4.425781 -1.617188 4.726562 -1.886719 C 5.027344 -2.15625 5.230469 -2.558594 5.339844 -3.097656 L 5.984375 -6.289062 Z M 2.957031 2.453125 C 2.730469 2.453125 2.550781 2.386719 2.414062 2.253906 C 2.277344 2.125 2.207031 1.949219 2.207031 1.730469 C 2.207031 1.488281 2.296875 1.28125 2.476562 1.109375 C 2.65625 0.9375 2.863281 0.851562 3.097656 0.851562 C 3.308594 0.851562 3.484375 0.917969 3.628906 1.050781 C 3.773438 1.183594 3.84375 1.351562 3.84375 1.554688 C 3.84375 1.828125 3.761719 2.046875 3.59375 2.207031 C 3.425781 2.371094 3.214844 2.453125 2.957031 2.453125 Z M 2.957031 2.453125 "/></g></g></g><g fill="#000000" fill-opacity="1"><g transform="translate(146.348751, 274.93838)"><g/></g></g><g fill="#000000" fill-opacity="1"><g transform="translate(150.520417, 274.93838)"><g><path d="M 8.34375 -8.671875 L 6.613281 0 L 4.886719 0 L 5.011719 -0.632812 C 4.484375 -0.148438 3.839844 0.09375 3.085938 0.09375 C 2.59375 0.09375 2.144531 -0.0195312 1.730469 -0.246094 C 1.316406 -0.472656 0.988281 -0.796875 0.742188 -1.222656 C 0.496094 -1.644531 0.375 -2.144531 0.375 -2.722656 C 0.375 -3.417969 0.527344 -4.042969 0.835938 -4.597656 C 1.144531 -5.15625 1.5625 -5.59375 2.09375 -5.90625 C 2.621094 -6.222656 3.207031 -6.382812 3.84375 -6.382812 C 4.304688 -6.382812 4.707031 -6.304688 5.054688 -6.148438 C 5.402344 -5.992188 5.675781 -5.761719 5.878906 -5.457031 L 6.519531 -8.671875 Z M 3.644531 -1.414062 C 4.003906 -1.414062 4.324219 -1.5 4.605469 -1.675781 C 4.886719 -1.851562 5.101562 -2.097656 5.257812 -2.40625 C 5.414062 -2.71875 5.492188 -3.078125 5.492188 -3.484375 C 5.492188 -3.910156 5.367188 -4.25 5.113281 -4.5 C 4.859375 -4.75 4.507812 -4.875 4.054688 -4.875 C 3.695312 -4.875 3.378906 -4.785156 3.097656 -4.609375 C 2.816406 -4.433594 2.597656 -4.191406 2.441406 -3.878906 C 2.285156 -3.570312 2.207031 -3.210938 2.207031 -2.804688 C 2.207031 -2.375 2.335938 -2.039062 2.589844 -1.789062 C 2.84375 -1.539062 3.195312 -1.414062 3.644531 -1.414062 Z M 4.242188 -7.980469 L 9.046875 -7.980469 L 8.847656 -6.929688 L 4.03125 -6.929688 Z M 4.242188 -7.980469 "/></g></g></g><g fill="#000000" fill-opacity="1"><g transform="translate(159.470905, 274.93838)"><g><path d="M 7.855469 -6.289062 L 6.601562 0 L 4.875 0 L 4.992188 -0.621094 C 4.46875 -0.144531 3.824219 0.09375 3.0625 0.09375 C 2.570312 0.09375 2.121094 -0.0195312 1.707031 -0.246094 C 1.292969 -0.472656 0.964844 -0.796875 0.71875 -1.222656 C 0.472656 -1.644531 0.351562 -2.144531 0.351562 -2.722656 C 0.351562 -3.417969 0.503906 -4.042969 0.8125 -4.597656 C 1.121094 -5.15625 1.539062 -5.59375 2.070312 -5.90625 C 2.597656 -6.222656 3.183594 -6.382812 3.820312 -6.382812 C 4.789062 -6.382812 5.46875 -6.066406 5.867188 -5.433594 L 6.03125 -6.289062 Z M 3.621094 -1.414062 C 3.980469 -1.414062 4.300781 -1.5 4.582031 -1.675781 C 4.863281 -1.851562 5.078125 -2.097656 5.234375 -2.40625 C 5.390625 -2.71875 5.46875 -3.078125 5.46875 -3.484375 C 5.46875 -3.910156 5.34375 -4.25 5.089844 -4.5 C 4.835938 -4.75 4.484375 -4.875 4.03125 -4.875 C 3.671875 -4.875 3.355469 -4.785156 3.074219 -4.609375 C 2.792969 -4.433594 2.574219 -4.191406 2.417969 -3.878906 C 2.261719 -3.570312 2.183594 -3.210938 2.183594 -2.804688 C 2.183594 -2.375 2.3125 -2.039062 2.566406 -1.789062 C 2.820312 -1.539062 3.171875 -1.414062 3.621094 -1.414062 Z M 3.050781 2.453125 C 2.824219 2.453125 2.644531 2.386719 2.507812 2.253906 C 2.371094 2.125 2.300781 1.949219 2.300781 1.730469 C 2.300781 1.488281 2.390625 1.28125 2.570312 1.109375 C 2.75 0.9375 2.957031 0.851562 3.191406 0.851562 C 3.402344 0.851562 3.578125 0.917969 3.722656 1.050781 C 3.867188 1.183594 3.9375 1.351562 3.9375 1.554688 C 3.9375 1.828125 3.855469 2.046875 3.6875 2.207031 C 3.519531 2.371094 3.308594 2.453125 3.050781 2.453125 Z M 4.980469 -7 C 4.417969 -7 3.953125 -7.148438 3.585938 -7.4375 C 3.222656 -7.730469 3.039062 -8.117188 3.039062 -8.601562 C 3.039062 -8.679688 3.042969 -8.738281 3.050781 -8.777344 L 4.160156 -8.777344 C 4.152344 -8.527344 4.234375 -8.328125 4.398438 -8.175781 C 4.566406 -8.023438 4.796875 -7.945312 5.082031 -7.945312 C 5.371094 -7.945312 5.613281 -8.023438 5.808594 -8.175781 C 6.003906 -8.328125 6.125 -8.527344 6.171875 -8.777344 L 7.351562 -8.777344 C 7.25 -8.230469 6.984375 -7.800781 6.554688 -7.480469 C 6.128906 -7.160156 5.601562 -7 4.980469 -7 Z M 4.980469 -7 "/></g></g></g><g fill="#000000" fill-opacity="1"><g transform="translate(168.398022, 274.93838)"><g><path d="M 2.699219 -2.21875 C 2.683594 -2.15625 2.675781 -2.074219 2.675781 -1.964844 C 2.675781 -1.558594 2.898438 -1.355469 3.34375 -1.355469 C 3.582031 -1.355469 3.828125 -1.429688 4.078125 -1.578125 L 4.347656 -0.28125 C 3.941406 -0.03125 3.421875 0.09375 2.78125 0.09375 C 2.1875 0.09375 1.714844 -0.0625 1.355469 -0.375 C 0.996094 -0.6875 0.816406 -1.113281 0.816406 -1.660156 C 0.816406 -1.816406 0.835938 -2 0.875 -2.207031 L 1.378906 -4.746094 L 0.410156 -4.746094 L 0.691406 -6.148438 L 1.660156 -6.148438 L 1.964844 -7.679688 L 3.785156 -7.679688 L 3.484375 -6.148438 L 5.046875 -6.148438 L 4.769531 -4.746094 L 3.203125 -4.746094 Z M 2.699219 -2.21875 "/></g></g></g><g fill="#000000" fill-opacity="1"><g transform="translate(174.345681, 274.93838)"><g/></g></g><g fill="#000000" fill-opacity="1"><g transform="translate(178.517346, 274.93838)"><g><path d="M 7.714844 -6.289062 L 3.808594 0 L 1.929688 0 L 0.539062 -6.289062 L 2.335938 -6.289062 L 3.25 -2 L 5.890625 -6.289062 Z M 7.714844 -6.289062 "/></g></g></g><g fill="#000000" fill-opacity="1"><g transform="translate(186.369523, 274.93838)"><g><path d="M 7.046875 -3.609375 C 7.046875 -3.324219 7.011719 -3.003906 6.941406 -2.652344 L 2.128906 -2.652344 C 2.1875 -1.796875 2.730469 -1.367188 3.75 -1.367188 C 4.070312 -1.367188 4.375 -1.417969 4.667969 -1.519531 C 4.960938 -1.621094 5.214844 -1.765625 5.433594 -1.953125 L 6.195312 -0.746094 C 5.84375 -0.46875 5.441406 -0.257812 4.992188 -0.117188 C 4.539062 0.0234375 4.0625 0.09375 3.566406 0.09375 C 2.917969 0.09375 2.351562 -0.0195312 1.863281 -0.25 C 1.378906 -0.480469 1.003906 -0.808594 0.742188 -1.238281 C 0.480469 -1.667969 0.351562 -2.160156 0.351562 -2.722656 C 0.351562 -3.417969 0.507812 -4.042969 0.824219 -4.597656 C 1.140625 -5.15625 1.578125 -5.59375 2.140625 -5.90625 C 2.699219 -6.222656 3.339844 -6.382812 4.054688 -6.382812 C 4.664062 -6.382812 5.191406 -6.269531 5.640625 -6.042969 C 6.085938 -5.816406 6.433594 -5.492188 6.679688 -5.070312 C 6.925781 -4.652344 7.046875 -4.164062 7.046875 -3.609375 Z M 3.972656 -5.011719 C 3.546875 -5.011719 3.183594 -4.898438 2.886719 -4.667969 C 2.589844 -4.4375 2.378906 -4.121094 2.253906 -3.714844 L 5.375 -3.714844 C 5.375 -4.121094 5.25 -4.4375 4.996094 -4.667969 C 4.742188 -4.898438 4.402344 -5.011719 3.972656 -5.011719 Z M 5.117188 -8.765625 L 7.128906 -8.765625 L 4.839844 -7.082031 L 3.367188 -7.082031 Z M 5.117188 -8.765625 "/></g></g></g><g fill="#000000" fill-opacity="1"><g transform="translate(194.572225, 274.93838)"><g/></g></g><g fill="#000000" fill-opacity="1"><g transform="translate(198.743891, 274.93838)"><g><path d="M 4.476562 -3.144531 L 6.230469 0 L 4.300781 0 L 3.273438 -1.929688 L 1.460938 0 L -0.621094 0 L 2.523438 -3.226562 L 0.851562 -6.289062 L 2.746094 -6.289062 L 3.738281 -4.441406 L 5.492188 -6.289062 L 7.503906 -6.289062 Z M 4.476562 -3.144531 "/></g></g></g><g fill="#000000" fill-opacity="1"><g transform="translate(206.561019, 274.93838)"><g><path d="M 7.046875 -3.609375 C 7.046875 -3.324219 7.011719 -3.003906 6.941406 -2.652344 L 2.128906 -2.652344 C 2.1875 -1.796875 2.730469 -1.367188 3.75 -1.367188 C 4.070312 -1.367188 4.375 -1.417969 4.667969 -1.519531 C 4.960938 -1.621094 5.214844 -1.765625 5.433594 -1.953125 L 6.195312 -0.746094 C 5.84375 -0.46875 5.441406 -0.257812 4.992188 -0.117188 C 4.539062 0.0234375 4.0625 0.09375 3.566406 0.09375 C 2.917969 0.09375 2.351562 -0.0195312 1.863281 -0.25 C 1.378906 -0.480469 1.003906 -0.808594 0.742188 -1.238281 C 0.480469 -1.667969 0.351562 -2.160156 0.351562 -2.722656 C 0.351562 -3.417969 0.507812 -4.042969 0.824219 -4.597656 C 1.140625 -5.15625 1.578125 -5.59375 2.140625 -5.90625 C 2.699219 -6.222656 3.339844 -6.382812 4.054688 -6.382812 C 4.664062 -6.382812 5.191406 -6.269531 5.640625 -6.042969 C 6.085938 -5.816406 6.433594 -5.492188 6.679688 -5.070312 C 6.925781 -4.652344 7.046875 -4.164062 7.046875 -3.609375 Z M 3.972656 -5.011719 C 3.546875 -5.011719 3.183594 -4.898438 2.886719 -4.667969 C 2.589844 -4.4375 2.378906 -4.121094 2.253906 -3.714844 L 5.375 -3.714844 C 5.375 -4.121094 5.25 -4.4375 4.996094 -4.667969 C 4.742188 -4.898438 4.402344 -5.011719 3.972656 -5.011719 Z M 3.972656 -5.011719 "/></g></g></g><g fill="#000000" fill-opacity="1"><g transform="translate(214.763722, 274.93838)"><g/></g></g><g fill="#000000" fill-opacity="1"><g transform="translate(218.935388, 274.93838)"><g><path d="M 4.910156 -3.554688 L 7.070312 0 L 4.957031 0 L 3.460938 -2.441406 L 2.347656 -1.519531 L 2.046875 0 L 0.222656 0 L 1.953125 -8.671875 L 3.773438 -8.671875 L 2.804688 -3.820312 L 5.820312 -6.289062 L 8.191406 -6.289062 Z M 4.910156 -3.554688 "/></g></g></g><g fill="#000000" fill-opacity="1"><g transform="translate(227.33672, 274.93838)"><g><path d="M 5.128906 -6.382812 C 5.832031 -6.382812 6.390625 -6.195312 6.800781 -5.820312 C 7.214844 -5.445312 7.421875 -4.917969 7.421875 -4.230469 C 7.421875 -3.980469 7.394531 -3.730469 7.339844 -3.484375 L 6.636719 0 L 4.816406 0 L 5.492188 -3.367188 C 5.523438 -3.5 5.539062 -3.640625 5.539062 -3.796875 C 5.539062 -4.125 5.449219 -4.375 5.269531 -4.546875 C 5.089844 -4.71875 4.824219 -4.804688 4.464844 -4.804688 C 3.996094 -4.804688 3.609375 -4.667969 3.300781 -4.398438 C 2.992188 -4.132812 2.785156 -3.726562 2.675781 -3.191406 L 2.046875 0 L 0.222656 0 L 1.953125 -8.671875 L 3.773438 -8.671875 L 3.191406 -5.714844 C 3.726562 -6.160156 4.375 -6.382812 5.128906 -6.382812 Z M 5.128906 -6.382812 "/></g></g></g><g fill="#000000" fill-opacity="1"><g transform="translate(236.275523, 274.93838)"><g><path d="M 7.855469 -6.289062 L 6.601562 0 L 4.875 0 L 4.992188 -0.621094 C 4.46875 -0.144531 3.824219 0.09375 3.0625 0.09375 C 2.570312 0.09375 2.121094 -0.0195312 1.707031 -0.246094 C 1.292969 -0.472656 0.964844 -0.796875 0.71875 -1.222656 C 0.472656 -1.644531 0.351562 -2.144531 0.351562 -2.722656 C 0.351562 -3.417969 0.503906 -4.042969 0.8125 -4.597656 C 1.121094 -5.15625 1.539062 -5.59375 2.070312 -5.90625 C 2.597656 -6.222656 3.183594 -6.382812 3.820312 -6.382812 C 4.789062 -6.382812 5.46875 -6.066406 5.867188 -5.433594 L 6.03125 -6.289062 Z M 3.621094 -1.414062 C 3.980469 -1.414062 4.300781 -1.5 4.582031 -1.675781 C 4.863281 -1.851562 5.078125 -2.097656 5.234375 -2.40625 C 5.390625 -2.71875 5.46875 -3.078125 5.46875 -3.484375 C 5.46875 -3.910156 5.34375 -4.25 5.089844 -4.5 C 4.835938 -4.75 4.484375 -4.875 4.03125 -4.875 C 3.671875 -4.875 3.355469 -4.785156 3.074219 -4.609375 C 2.792969 -4.433594 2.574219 -4.191406 2.417969 -3.878906 C 2.261719 -3.570312 2.183594 -3.210938 2.183594 -2.804688 C 2.183594 -2.375 2.3125 -2.039062 2.566406 -1.789062 C 2.820312 -1.539062 3.171875 -1.414062 3.621094 -1.414062 Z M 5.539062 -8.777344 L 7.550781 -8.777344 L 5.257812 -7.09375 L 3.785156 -7.09375 Z M 5.539062 -8.777344 "/></g></g></g><g fill="#000000" fill-opacity="1"><g transform="translate(245.20264, 274.93838)"><g><path d="M 3.542969 0.09375 C 2.894531 0.09375 2.328125 -0.0234375 1.847656 -0.257812 C 1.363281 -0.492188 0.992188 -0.820312 0.730469 -1.246094 C 0.46875 -1.667969 0.339844 -2.160156 0.339844 -2.722656 C 0.339844 -3.417969 0.503906 -4.039062 0.828125 -4.59375 C 1.15625 -5.144531 1.613281 -5.582031 2.195312 -5.902344 C 2.78125 -6.222656 3.441406 -6.382812 4.171875 -6.382812 C 4.84375 -6.382812 5.421875 -6.242188 5.90625 -5.964844 C 6.394531 -5.691406 6.757812 -5.296875 7 -4.792969 L 5.457031 -4.019531 C 5.183594 -4.589844 4.71875 -4.875 4.054688 -4.875 C 3.695312 -4.875 3.375 -4.785156 3.089844 -4.609375 C 2.808594 -4.433594 2.585938 -4.191406 2.425781 -3.878906 C 2.265625 -3.570312 2.183594 -3.214844 2.183594 -2.816406 C 2.183594 -2.386719 2.3125 -2.046875 2.570312 -1.792969 C 2.828125 -1.539062 3.1875 -1.414062 3.644531 -1.414062 C 4.316406 -1.414062 4.832031 -1.695312 5.1875 -2.253906 L 6.53125 -1.414062 C 6.230469 -0.9375 5.8125 -0.570312 5.289062 -0.304688 C 4.761719 -0.0390625 4.179688 0.09375 3.542969 0.09375 Z M 3.542969 0.09375 "/></g></g></g><g fill="#000000" fill-opacity="1"><g transform="translate(252.973025, 274.93838)"><g><path d="M 5.128906 -6.382812 C 5.832031 -6.382812 6.390625 -6.195312 6.800781 -5.820312 C 7.214844 -5.445312 7.421875 -4.917969 7.421875 -4.230469 C 7.421875 -3.980469 7.394531 -3.730469 7.339844 -3.484375 L 6.636719 0 L 4.816406 0 L 5.492188 -3.367188 C 5.523438 -3.5 5.539062 -3.640625 5.539062 -3.796875 C 5.539062 -4.125 5.449219 -4.375 5.269531 -4.546875 C 5.089844 -4.71875 4.824219 -4.804688 4.464844 -4.804688 C 3.996094 -4.804688 3.609375 -4.667969 3.300781 -4.398438 C 2.992188 -4.132812 2.785156 -3.726562 2.675781 -3.191406 L 2.046875 0 L 0.222656 0 L 1.953125 -8.671875 L 3.773438 -8.671875 L 3.191406 -5.714844 C 3.726562 -6.160156 4.375 -6.382812 5.128906 -6.382812 Z M 5.128906 -6.382812 "/></g></g></g><g fill="#000000" fill-opacity="1"><g transform="translate(261.911838, 274.93838)"><g/></g></g><g fill="#000000" fill-opacity="1"><g transform="translate(266.083494, 274.93838)"><g><path d="M 2.816406 -1.542969 L 6.253906 -1.542969 L 5.949219 0 L -0.246094 0 L 0 -1.226562 L 3.726562 -4.148438 C 4.179688 -4.515625 4.492188 -4.824219 4.667969 -5.070312 C 4.84375 -5.320312 4.933594 -5.582031 4.933594 -5.855469 C 4.933594 -6.128906 4.828125 -6.347656 4.621094 -6.507812 C 4.414062 -6.671875 4.117188 -6.753906 3.726562 -6.753906 C 3.402344 -6.753906 3.085938 -6.679688 2.78125 -6.53125 C 2.476562 -6.386719 2.210938 -6.175781 1.988281 -5.902344 L 0.714844 -6.824219 C 1.046875 -7.285156 1.507812 -7.648438 2.09375 -7.917969 C 2.675781 -8.1875 3.316406 -8.320312 4.007812 -8.320312 C 4.578125 -8.320312 5.078125 -8.226562 5.511719 -8.039062 C 5.941406 -7.855469 6.277344 -7.59375 6.515625 -7.257812 C 6.753906 -6.921875 6.871094 -6.542969 6.871094 -6.125 C 6.871094 -5.617188 6.730469 -5.140625 6.449219 -4.699219 C 6.171875 -4.253906 5.683594 -3.761719 4.992188 -3.226562 Z M 2.816406 -1.542969 "/></g></g></g><g fill="#000000" fill-opacity="1"><g transform="translate(273.842212, 274.93838)"><g><path d="M 7.667969 -1.71875 L 6.324219 -1.71875 L 5.984375 0 L 4.136719 0 L 4.488281 -1.71875 L 0.0820312 -1.71875 L 0.328125 -2.992188 L 5.140625 -8.179688 L 7.210938 -8.179688 L 2.722656 -3.261719 L 4.875 -3.261719 L 5.175781 -4.792969 L 6.941406 -4.792969 L 6.636719 -3.261719 L 7.980469 -3.261719 Z M 7.667969 -1.71875 "/></g></g></g><g fill="#000000" fill-opacity="1"><g transform="translate(282.757653, 274.93838)"><g><path d="M 4.734375 -9.839844 L 6.4375 -9.839844 L 0.433594 1.167969 L -1.261719 1.167969 Z M 4.734375 -9.839844 "/></g></g></g><g fill="#000000" fill-opacity="1"><g transform="translate(288.202889, 274.93838)"><g><path d="M 7.867188 -8.179688 L 7.621094 -6.953125 L 3.25 0 L 1.144531 0 L 5.339844 -6.636719 L 2.6875 -6.636719 L 2.417969 -5.304688 L 0.734375 -5.304688 L 1.308594 -8.179688 Z M 7.867188 -8.179688 "/></g></g></g></svg>